<?xml version="1.0" encoding="UTF-8" standalone="no"?>
<svg
   xmlns:dc="http://purl.org/dc/elements/1.1/"
   xmlns:cc="http://creativecommons.org/ns#"
   xmlns:rdf="http://www.w3.org/1999/02/22-rdf-syntax-ns#"
   xmlns:svg="http://www.w3.org/2000/svg"
   xmlns="http://www.w3.org/2000/svg"
   xmlns:sodipodi="http://sodipodi.sourceforge.net/DTD/sodipodi-0.dtd"
   xmlns:inkscape="http://www.inkscape.org/namespaces/inkscape"
   width="156.73929"
   height="157.70314"
   viewBox="0 0 156.73929 157.70314"
   version="1.1"
   id="svg7"
   sodipodi:docname="create_playlist.svg"
   inkscape:version="1.0.2-2 (e86c870879, 2021-01-15)">
  <metadata
     id="metadata11">
    <rdf:RDF>
      <cc:Work
         rdf:about="">
        <dc:format>image/svg+xml</dc:format>
        <dc:type
           rdf:resource="http://purl.org/dc/dcmitype/StillImage" />
        <dc:title />
      </cc:Work>
    </rdf:RDF>
  </metadata>
  <sodipodi:namedview
     pagecolor="#ffffff"
     bordercolor="#666666"
     borderopacity="1"
     objecttolerance="10"
     gridtolerance="10"
     guidetolerance="10"
     inkscape:pageopacity="0"
     inkscape:pageshadow="2"
     inkscape:window-width="1199"
     inkscape:window-height="937"
     id="namedview9"
     showgrid="false"
     inkscape:zoom="3.2936508"
     inkscape:cx="68.146911"
     inkscape:cy="61.261424"
     inkscape:window-x="-377"
     inkscape:window-y="26"
     inkscape:window-maximized="0"
     inkscape:current-layer="svg7"
     inkscape:document-rotation="0" />
  <defs
     id="defs4">
    <style
       id="style2">
      .cls-1 {
        fill: #8bffff;
      }
    </style>
  </defs>
  <path
     id="FontAwsome_align-justify_"
     data-name="FontAwsome (align-justify)"
     class="cls-1"
     d="M 68.217955,108.01294 H 19.506706 c -1.984609,0 -3.593453,1.60885 -3.593453,3.59346 v 7.18691 c 0,1.9846 1.608844,3.59345 3.593453,3.59345 h 48.711249 c 1.984609,0 0.829794,-1.65611 0.399272,-3.59345 l -1.59709,-7.18691 c -0.430522,-1.93735 3.182427,-3.59346 1.197818,-3.59346 z M 82.591766,79.265322 h -63.08506 c -1.984609,0 -3.593453,1.608845 -3.593453,3.593453 v 7.186905 c 0,1.984608 1.608844,3.593453 3.593453,3.593453 h 51.905429 c 1.984608,0 0.677861,-2.11014 1.996363,-3.593453 l 6.38836,-7.186905 c 1.318502,-1.483314 4.779516,-3.593453 2.794908,-3.593453 z M 112.93648,50.517699 H 19.506706 c -1.984609,0 -3.593453,1.608844 -3.593453,3.593453 v 7.186906 c 0,1.984609 1.608844,3.593453 3.593453,3.593453 h 93.429774 c 1.98461,0 3.59345,-1.608844 3.59345,-3.593453 v -7.186906 c 0,-1.984609 -1.60884,-3.593453 -3.59345,-3.593453 z m 0,-28.747622 H 19.506706 c -1.984609,0 -3.593453,1.608843 -3.593453,3.593452 v 7.186906 c 0,1.984609 1.608844,3.593453 3.593453,3.593453 h 93.429774 c 1.98461,0 3.59345,-1.608844 3.59345,-3.593453 v -7.186906 c 0,-1.984609 -1.60884,-3.593452 -3.59345,-3.593452 z"
     sodipodi:nodetypes="ssssssssssssssssssssssssssssssssssss"
     style="stroke-width:0.798545" />
  <path
     id="FontAwsome_play-circle_"
     data-name="FontAwsome (play-circle)"
     class="cls-1"
     d="m 103.15214,73.851946 a 35.928139,35.928139 0 1 0 35.92814,35.928144 35.921752,35.921752 0 0 0 -35.92814,-35.928144 z m 16.76146,39.405004 -25.496747,14.63254 a 3.4832536,3.4832536 0 0 1 -5.172178,-3.04246 V 94.713137 a 3.4848507,3.4848507 0 0 1 5.172178,-3.042456 L 119.9144,107.17204 a 3.4880449,3.4880449 0 0 1 -8e-4,6.08491 z"
     style="fill:none;stroke:#8bffff;stroke-width:3.99273px" />
  <path
     style="fill:#8bffff;fill-opacity:1;stroke:none;stroke-width:0.798545px;stroke-linecap:butt;stroke-linejoin:miter;stroke-opacity:1"
     d="m 93.012302,91.838076 28.124178,16.971494 -1.22288,4.44738 -26.416399,14.70614 -4.12165,-2.18204 0.727347,-32.488274 z"
     id="path845" />
</svg>
