<?xml version="1.0" encoding="UTF-8" standalone="no"?>
<svg
   xmlns:dc="http://purl.org/dc/elements/1.1/"
   xmlns:cc="http://creativecommons.org/ns#"
   xmlns:rdf="http://www.w3.org/1999/02/22-rdf-syntax-ns#"
   xmlns:svg="http://www.w3.org/2000/svg"
   xmlns="http://www.w3.org/2000/svg"
   xmlns:sodipodi="http://sodipodi.sourceforge.net/DTD/sodipodi-0.dtd"
   xmlns:inkscape="http://www.inkscape.org/namespaces/inkscape"
   width="156.73929"
   height="157.70314"
   viewBox="0 0 156.73929 157.70314"
   version="1.1"
   id="svg7"
   sodipodi:docname="create_playlist.svg"
   inkscape:version="1.0.2-2 (e86c870879, 2021-01-15)">
  <metadata
     id="metadata11">
    <rdf:RDF>
      <cc:Work
         rdf:about="">
        <dc:format>image/svg+xml</dc:format>
        <dc:type
           rdf:resource="http://purl.org/dc/dcmitype/StillImage" />
        <dc:title />
      </cc:Work>
    </rdf:RDF>
  </metadata>
  <sodipodi:namedview
     pagecolor="#ffffff"
     bordercolor="#666666"
     borderopacity="1"
     objecttolerance="10"
     gridtolerance="10"
     guidetolerance="10"
     inkscape:pageopacity="0"
     inkscape:pageshadow="2"
     inkscape:window-width="1425"
     inkscape:window-height="937"
     id="namedview9"
     showgrid="false"
     inkscape:zoom="3.2936508"
     inkscape:cx="68.146911"
     inkscape:cy="61.261424"
     inkscape:window-x="0"
     inkscape:window-y="26"
     inkscape:window-maximized="0"
     inkscape:current-layer="svg7"
     inkscape:document-rotation="0" />
  <defs
     id="defs4">
    <style
       id="style2">
      .cls-1 {
        fill: #8bffff;
      }
    </style>
  </defs>
  <path
     id="FontAwsome_align-justify_"
     data-name="FontAwsome (align-justify)"
     class="cls-1"
     d="M 68.960678,108.39898 H 23.420279 c -1.855421,0 -3.359538,1.50412 -3.359538,3.35954 v 6.71908 c 0,1.85541 1.504117,3.35954 3.359538,3.35954 h 45.540399 c 1.855422,0 0.775779,-1.54831 0.373282,-3.35954 l -1.493128,-6.71908 c -0.402497,-1.81124 2.975268,-3.35954 1.119846,-3.35954 z M 82.398829,81.522679 h -58.97855 c -1.855421,0 -3.359538,1.504118 -3.359538,3.359538 v 6.719075 c 0,1.85542 1.504117,3.359538 3.359538,3.359538 h 48.526655 c 1.85542,0 0.633735,-1.972781 1.86641,-3.359538 l 5.972511,-6.719075 c 1.232674,-1.386758 4.468394,-3.359538 2.612974,-3.359538 z M 110.76826,54.646378 H 23.420279 c -1.855421,0 -3.359538,1.504116 -3.359538,3.359538 v 6.719075 c 0,1.855421 1.504117,3.359538 3.359538,3.359538 h 87.347981 c 1.85542,0 3.35953,-1.504117 3.35953,-3.359538 v -6.719075 c 0,-1.855422 -1.50411,-3.359538 -3.35953,-3.359538 z m 0,-26.876301 H 23.420279 c -1.855421,0 -3.359538,1.504116 -3.359538,3.359537 v 6.719076 c 0,1.855421 1.504117,3.359537 3.359538,3.359537 h 87.347981 c 1.85542,0 3.35953,-1.504116 3.35953,-3.359537 v -6.719076 c 0,-1.855421 -1.50411,-3.359537 -3.35953,-3.359537 z"
     sodipodi:nodetypes="ssssssssssssssssssssssssssssssssssss"
     style="stroke-width:0.746564" />
  <path
     id="FontAwsome_play-circle_"
     data-name="FontAwsome (play-circle)"
     class="cls-1"
     d="m 101.62083,76.461686 a 33.589403,33.589403 0 1 0 33.5894,33.589404 33.583432,33.583432 0 0 0 -33.5894,-33.589404 z m 15.67037,36.839944 -23.837036,13.68004 a 3.2565118,3.2565118 0 0 1 -4.835496,-2.84442 V 95.964922 a 3.258005,3.258005 0 0 1 4.835496,-2.844408 l 23.837786,14.492296 a 3.2609912,3.2609912 0 0 1 -7.5e-4,5.68882 z"
     style="fill:none;stroke:#8bffff;stroke-width:3.73282px" />
  <path
     style="fill:#8bffff;fill-opacity:1;stroke:none;stroke-width:0.746564px;stroke-linecap:butt;stroke-linejoin:miter;stroke-opacity:1"
     d="m 92.141042,93.277012 26.293438,15.866738 -1.14328,4.15788 -24.696824,13.74885 -3.853352,-2.04001 0.680001,-30.373451 z"
     id="path845" />
</svg>
