<?xml version="1.0" encoding="UTF-8" standalone="no"?>
<svg
   xmlns:dc="http://purl.org/dc/elements/1.1/"
   xmlns:cc="http://creativecommons.org/ns#"
   xmlns:rdf="http://www.w3.org/1999/02/22-rdf-syntax-ns#"
   xmlns:svg="http://www.w3.org/2000/svg"
   xmlns="http://www.w3.org/2000/svg"
   xmlns:sodipodi="http://sodipodi.sourceforge.net/DTD/sodipodi-0.dtd"
   xmlns:inkscape="http://www.inkscape.org/namespaces/inkscape"
   width="156.73929"
   height="157.70314"
   viewBox="0 0 156.73929 157.70314"
   version="1.1"
   id="svg7"
   sodipodi:docname="create_playlist.svg"
   inkscape:version="1.0.2-2 (e86c870879, 2021-01-15)">
  <metadata
     id="metadata11">
    <rdf:RDF>
      <cc:Work
         rdf:about="">
        <dc:format>image/svg+xml</dc:format>
        <dc:type
           rdf:resource="http://purl.org/dc/dcmitype/StillImage" />
        <dc:title></dc:title>
      </cc:Work>
    </rdf:RDF>
  </metadata>
  <sodipodi:namedview
     pagecolor="#ffffff"
     bordercolor="#666666"
     borderopacity="1"
     objecttolerance="10"
     gridtolerance="10"
     guidetolerance="10"
     inkscape:pageopacity="0"
     inkscape:pageshadow="2"
     inkscape:window-width="1282"
     inkscape:window-height="937"
     id="namedview9"
     showgrid="false"
     inkscape:zoom="3.2936508"
     inkscape:cx="77.956331"
     inkscape:cy="61.261424"
     inkscape:window-x="0"
     inkscape:window-y="0"
     inkscape:window-maximized="0"
     inkscape:current-layer="svg7" />
  <defs
     id="defs4">
    <style
       id="style2">
      .cls-1 {
        fill: #8bffff;
      }
    </style>
  </defs>
  <path
     id="FontAwsome_align-justify_"
     data-name="FontAwsome (align-justify)"
     class="cls-1"
     d="M 65.5,108 H 4.5 C 2.0147186,108 0,110.01472 0,112.5 v 9 c 0,2.48528 2.0147186,4.5 4.5,4.5 h 61 c 2.485281,0 1.039133,-2.0739 0.5,-4.5 l -2,-9 c -0.539133,-2.4261 3.985281,-4.5 1.5,-4.5 z m 18,-36 H 4.5 C 2.0147186,72 0,74.01472 0,76.5 v 9 C 0,87.98528 2.0147186,90 4.5,90 h 65 c 2.48528,0 0.84887,-2.64248 2.5,-4.5 l 8,-9 C 81.65113,74.64248 85.98528,72 83.5,72 Z m 38,-36 H 4.5 C 2.0147186,36 0,38.014719 0,40.5 v 9 C 0,51.985281 2.0147186,54 4.5,54 h 117 c 2.48528,0 4.5,-2.014719 4.5,-4.5 v -9 c 0,-2.485281 -2.01472,-4.5 -4.5,-4.5 z m 0,-36 H 4.5 C 2.0147186,0 0,2.014719 0,4.5 v 9 C 0,15.985281 2.0147186,18 4.5,18 h 117 c 2.48528,0 4.5,-2.014719 4.5,-4.5 v -9 C 126,2.014719 123.98528,0 121.5,0 Z"
     sodipodi:nodetypes="ssssssssssssssssssssssssssssssssssss" />
  <path
     id="FontAwsome_play-circle_"
     data-name="FontAwsome (play-circle)"
     class="cls-1"
     d="m 109.24729,65.220952 a 44.992,44.992 0 1 0 44.992,44.991998 44.984,44.984 0 0 0 -44.992,-44.991998 z m 20.99,49.345998 -31.929,18.324 a 4.362,4.362 0 0 1 -6.477002,-3.81 V 91.344952 a 4.364,4.364 0 0 1 6.477002,-3.81 l 31.93,19.411998 a 4.368,4.368 0 0 1 -0.001,7.62 z"
     style="fill:none;stroke:#8bffff;stroke-width:5px" />
  <path
     style="fill:#8bffff;fill-opacity:1;stroke:none;stroke-width:1px;stroke-linecap:butt;stroke-linejoin:miter;stroke-opacity:1"
     d="m 96.549398,87.744578 35.219272,21.253012 -1.53138,5.56936 -33.080664,18.41618 -5.161445,-2.73253 0.910843,-40.684335 z"
     id="path845" />
</svg>
