<?xml version="1.0" encoding="UTF-8" standalone="no"?>
<svg
   xmlns:dc="http://purl.org/dc/elements/1.1/"
   xmlns:cc="http://creativecommons.org/ns#"
   xmlns:rdf="http://www.w3.org/1999/02/22-rdf-syntax-ns#"
   xmlns:svg="http://www.w3.org/2000/svg"
   xmlns="http://www.w3.org/2000/svg"
   xmlns:sodipodi="http://sodipodi.sourceforge.net/DTD/sodipodi-0.dtd"
   xmlns:inkscape="http://www.inkscape.org/namespaces/inkscape"
   width="601"
   height="231"
   viewBox="0 0 601 231"
   version="1.1"
   id="svg9"
   sodipodi:docname="discofy_logo.svg"
   inkscape:version="1.0.2-2 (e86c870879, 2021-01-15)">
  <metadata
     id="metadata13">
    <rdf:RDF>
      <cc:Work
         rdf:about="">
        <dc:format>image/svg+xml</dc:format>
        <dc:type
           rdf:resource="http://purl.org/dc/dcmitype/StillImage" />
        <dc:title />
      </cc:Work>
    </rdf:RDF>
  </metadata>
  <sodipodi:namedview
     pagecolor="#ffffff"
     bordercolor="#666666"
     borderopacity="1"
     objecttolerance="10"
     gridtolerance="10"
     guidetolerance="10"
     inkscape:pageopacity="0"
     inkscape:pageshadow="2"
     inkscape:window-width="1920"
     inkscape:window-height="1001"
     id="namedview11"
     showgrid="false"
     inkscape:zoom="0.92262895"
     inkscape:cx="287.45517"
     inkscape:cy="169.51673"
     inkscape:window-x="-9"
     inkscape:window-y="-9"
     inkscape:window-maximized="1"
     inkscape:current-layer="svg9"
     inkscape:document-rotation="0"
     inkscape:snap-text-baseline="true" />
  <defs
     id="defs4">
    <style
       id="style2">
      .cls-1 {
        fill: #8bffff;
        font-size: 180px;
        font-family: MicrosoftPhagsPa-Bold, Microsoft PhagsPa;
        font-weight: 700;
        letter-spacing: -0.045em;
      }
    </style>
  </defs>
  <path
     id="Disc_fy"
     d="M 492.06641 20.648438 C 480.58203 20.648438 471.5 23.783203 464.82031 30.052734 C 458.14062 36.322266 454.80078 44.583984 454.80078 54.837891 L 454.80078 66 L 439.68359 66 L 439.68359 86.478516 L 454.80078 86.478516 L 454.80078 156 L 482.48633 156 L 482.48633 86.478516 L 503.05273 86.478516 L 503.05273 82.664062 L 532.83203 155.82422 L 528.08594 166.98633 C 525.27344 173.72461 520.29297 177.09375 513.14453 177.09375 C 508.80859 177.09375 504.79492 176.00977 501.10352 173.8418 L 501.10352 195.99023 C 505.43945 197.51367 510.97656 198.27539 517.71484 198.27539 C 535.41016 198.27539 548.65234 186.58594 557.44141 163.20703 L 594.00391 66 L 566.49414 66 L 549.53125 120.93164 C 548.125 125.44336 547.1582 129.39844 546.63086 132.79688 L 546.2793 132.79688 C 545.69336 128.16797 544.87305 124.1543 543.81836 120.75586 L 527.03125 66 L 503.05273 66 L 496.26953 66 L 482.48633 66 L 482.48633 56.419922 C 482.48633 46.751953 486.93945 41.917969 495.8457 41.917969 C 499.12695 41.917969 502.55469 42.621094 506.12891 44.027344 L 506.12891 22.40625 C 502.37891 21.234375 497.69141 20.648438 492.06641 20.648438 z M 144.36719 23.197266 C 139.67969 23.197266 135.8418 24.515625 132.85352 27.152344 C 129.86523 29.789062 128.37109 33.1875 128.37109 37.347656 C 128.37109 41.390625 129.86523 44.818359 132.85352 47.630859 C 135.8418 50.384766 139.67969 51.761719 144.36719 51.761719 C 149.11328 51.761719 152.95117 50.414062 155.88086 47.71875 C 158.86914 45.023438 160.36328 41.566406 160.36328 37.347656 C 160.36328 33.1875 158.86914 29.789062 155.88086 27.152344 C 152.95117 24.515625 149.11328 23.197266 144.36719 23.197266 z M 8.4140625 29.964844 L 8.4140625 156 L 53.0625 156 C 73.394531 156 89.654297 150.14062 101.8418 138.42188 C 114.08789 126.70312 120.21094 111.0293 120.21094 91.400391 C 120.21094 50.443359 97.828125 29.964844 53.0625 29.964844 L 8.4140625 29.964844 z M 36.802734 53.080078 L 50.689453 53.080078 C 63.228516 53.080078 72.955078 56.537109 79.869141 63.451172 C 86.841797 70.306641 90.328125 79.740234 90.328125 91.751953 C 90.328125 104.4668 86.8125 114.51562 79.78125 121.89844 C 72.808594 129.28125 63.169922 132.97266 50.865234 132.97266 L 36.802734 132.97266 L 36.802734 53.080078 z M 206.84375 63.802734 C 201.74609 63.802734 196.82422 64.359375 192.07812 65.472656 C 187.39062 66.527344 183.20117 68.226562 179.50977 70.570312 C 175.87695 72.855469 172.94727 75.814453 170.7207 79.447266 C 168.55273 83.080078 167.46875 87.416016 167.46875 92.455078 C 167.46875 96.146484 167.9375 99.339844 168.875 102.03516 C 169.87109 104.73047 171.27734 107.10352 173.09375 109.1543 C 174.96875 111.20508 177.25391 113.02148 179.94922 114.60352 C 182.70312 116.12695 185.86719 117.5625 189.44141 118.91016 C 191.66797 119.78906 193.98242 120.58008 196.38477 121.2832 C 198.78711 121.98633 200.98438 122.77734 202.97656 123.65625 C 205.02734 124.53516 206.69727 125.56055 207.98633 126.73242 C 209.27539 127.9043 209.91992 129.36914 209.91992 131.12695 C 209.91992 133.88086 208.48438 135.93164 205.61328 137.2793 C 202.80078 138.62695 198.93359 139.30078 194.01172 139.30078 C 189.96875 139.30078 185.66211 138.62695 181.0918 137.2793 C 176.58008 135.93164 172.03906 133.88086 167.46875 131.12695 L 167.46875 153.62695 C 175.90625 156.67383 185.07617 158.19727 194.97852 158.19727 C 200.36914 158.19727 205.55469 157.64062 210.53516 156.52734 C 215.57422 155.47266 219.99805 153.77344 223.80664 151.42969 C 227.67383 149.02734 230.75 145.95117 233.03516 142.20117 C 235.37891 138.39258 236.55078 133.82227 236.55078 128.49023 C 236.55078 124.68164 235.96484 121.40039 234.79297 118.64648 C 233.67969 115.89258 232.03906 113.49023 229.87109 111.43945 C 227.76172 109.38867 225.21289 107.60156 222.22461 106.07812 C 219.23633 104.55469 215.89648 103.14844 212.20508 101.85938 C 210.1543 101.15625 208.07422 100.48242 205.96484 99.837891 C 203.91406 99.134766 202.03906 98.373047 200.33984 97.552734 C 198.64062 96.673828 197.26367 95.648438 196.20898 94.476562 C 195.1543 93.304688 194.62695 91.898438 194.62695 90.257812 C 194.62695 89.027344 194.97852 87.943359 195.68164 87.005859 C 196.38477 86.009766 197.35156 85.21875 198.58203 84.632812 C 199.8125 83.988281 201.21875 83.519531 202.80078 83.226562 C 204.44141 82.875 206.16992 82.699219 207.98633 82.699219 C 211.85352 82.699219 215.7793 83.226562 219.76367 84.28125 C 223.80664 85.277344 227.58594 86.800781 231.10156 88.851562 L 231.10156 67.40625 C 227.11719 66.234375 223.07422 65.355469 218.97266 64.769531 C 214.87109 64.125 210.82812 63.802734 206.84375 63.802734 z M 289.62109 63.802734 C 274.26953 63.802734 261.99414 68.226562 252.79492 77.074219 C 243.6543 85.863281 239.08398 97.904297 239.08398 113.19727 C 239.08398 126.43945 243.36133 137.25 251.91602 145.62891 C 260.4707 154.00781 271.66211 158.19727 285.49023 158.19727 C 297.32617 158.19727 306.37891 156.38086 312.64844 152.74805 L 312.64844 130.42383 C 306.02734 134.75977 299.25977 136.92773 292.3457 136.92773 C 284.55273 136.92773 278.42969 134.67188 273.97656 130.16016 C 269.52344 125.58984 267.29688 119.32031 267.29688 111.35156 C 267.29688 103.14844 269.61133 96.732422 274.24023 92.103516 C 278.92773 87.416016 285.25586 85.072266 293.22461 85.072266 C 300.37305 85.072266 306.84766 87.240234 312.64844 91.576172 L 312.64844 68.021484 C 307.90234 65.208984 300.22656 63.802734 289.62109 63.802734 z M 130.30469 66 L 130.30469 156 L 158.07812 156 L 158.07812 66 L 130.30469 66 z "
     style="fill:#8bffff;fill-opacity:1" />
  <path
     id="Icon_metro-music-0"
     style="fill:#8bffff;fill-opacity:1;stroke:#ffffff;stroke-width:2.87163px;stroke-opacity:0"
     d="m 396.90215,80.705721 -16.40906,3.42315 V 127.72124 A 19.909993,19.909993 0 0 0 369.36924,124.586 c -8.6015,0 -14.61616,4.67618 -14.61616,10.44146 0,5.76528 6.01466,10.43959 14.61616,10.43959 8.6015,0 15.57338,-4.67335 15.57338,-10.43959 V 105.6493 l 27.0917,-5.651665 A 38.231016,38.231016 0 0 0 396.90215,80.705721 Z" />
  <path
     id="FontAwsome_search_"
     data-name="FontAwsome (search)"
     class="cls-1"
     d="m 470.1436,184.62022 -31.11,-31.11 a 7.483,7.483 0 0 0 -5.3,-2.184 h -5.086 a 64.873,64.873 0 1 0 -11.233,11.233 v 5.086 a 7.483,7.483 0 0 0 2.184,5.3 l 31.11,31.11 a 7.458,7.458 0 0 0 10.578,0 l 8.83,-8.831 a 7.524,7.524 0 0 0 0.027,-10.604 z m -92.676,-33.293 a 39.94,39.94 0 1 1 39.94,-39.94 39.917,39.917 0 0 1 -39.94,39.94 z"
     style="fill:#8bffff;stroke:#1b1067;stroke-width:5px;stroke-opacity:0" />
  <text
     id="Discover_music_at_your_terms"
     data-name="Discover music at your terms"
     class="cls-1"
     style="font-size:29.8857px;font-family:MicrosoftPhagsPa, 'Microsoft PhagsPa';letter-spacing:0.015em;fill:#8bffff;stroke-width:0.964054"
     x="5.5169182"
     y="203.70634"><tspan
       x="5.5169182"
       y="203.70634"
       id="tspan6-3"
       style="stroke-width:0.964054">Discover music at your terms</tspan></text>
</svg>
