<?xml version="1.0" encoding="UTF-8" standalone="no"?>
<svg
   xmlns:dc="http://purl.org/dc/elements/1.1/"
   xmlns:cc="http://creativecommons.org/ns#"
   xmlns:rdf="http://www.w3.org/1999/02/22-rdf-syntax-ns#"
   xmlns:svg="http://www.w3.org/2000/svg"
   xmlns="http://www.w3.org/2000/svg"
   xmlns:sodipodi="http://sodipodi.sourceforge.net/DTD/sodipodi-0.dtd"
   xmlns:inkscape="http://www.inkscape.org/namespaces/inkscape"
   width="601"
   height="231"
   viewBox="0 0 601 231"
   version="1.1"
   id="svg9"
   sodipodi:docname="discofy_logo.svg"
   inkscape:version="1.0.2-2 (e86c870879, 2021-01-15)">
  <metadata
     id="metadata13">
    <rdf:RDF>
      <cc:Work
         rdf:about="">
        <dc:format>image/svg+xml</dc:format>
        <dc:type
           rdf:resource="http://purl.org/dc/dcmitype/StillImage" />
        <dc:title />
      </cc:Work>
    </rdf:RDF>
  </metadata>
  <sodipodi:namedview
     pagecolor="#ffffff"
     bordercolor="#666666"
     borderopacity="1"
     objecttolerance="10"
     gridtolerance="10"
     guidetolerance="10"
     inkscape:pageopacity="0"
     inkscape:pageshadow="2"
     inkscape:window-width="1920"
     inkscape:window-height="1001"
     id="namedview11"
     showgrid="false"
     inkscape:zoom="0.92262895"
     inkscape:cx="287.45517"
     inkscape:cy="169.51673"
     inkscape:window-x="-9"
     inkscape:window-y="-9"
     inkscape:window-maximized="1"
     inkscape:current-layer="svg9"
     inkscape:document-rotation="0"
     inkscape:snap-text-baseline="true" />
  <defs
     id="defs4">
    <style
       id="style2">
      .cls-1 {
        fill: #8bffff;
        font-size: 180px;
        font-family: MicrosoftPhagsPa-Bold, Microsoft PhagsPa;
        font-weight: 700;
        letter-spacing: -0.045em;
      }
    </style>
  </defs>
  <path
     id="Disc_fy"
     d="M 492.06641 20.648438 C 480.58203 20.648438 471.5 23.783203 464.82031 30.052734 C 458.14062 36.322266 454.80078 44.583984 454.80078 54.837891 L 454.80078 66 L 439.68359 66 L 439.68359 86.478516 L 454.80078 86.478516 L 454.80078 156 L 482.48633 156 L 482.48633 86.478516 L 503.05273 86.478516 L 503.05273 82.664062 L 532.83203 155.82422 L 528.08594 166.98633 C 525.27344 173.72461 520.29297 177.09375 513.14453 177.09375 C 508.80859 177.09375 504.79492 176.00977 501.10352 173.8418 L 501.10352 195.99023 C 505.43945 197.51367 510.97656 198.27539 517.71484 198.27539 C 535.41016 198.27539 548.65234 186.58594 557.44141 163.20703 L 594.00391 66 L 566.49414 66 L 549.53125 120.93164 C 548.125 125.44336 547.1582 129.39844 546.63086 132.79688 L 546.2793 132.79688 C 545.69336 128.16797 544.87305 124.1543 543.81836 120.75586 L 527.03125 66 L 503.05273 66 L 496.26953 66 L 482.48633 66 L 482.48633 56.419922 C 482.48633 46.751953 486.93945 41.917969 495.8457 41.917969 C 499.12695 41.917969 502.55469 42.621094 506.12891 44.027344 L 506.12891 22.40625 C 502.37891 21.234375 497.69141 20.648438 492.06641 20.648438 z M 144.36719 23.197266 C 139.67969 23.197266 135.8418 24.515625 132.85352 27.152344 C 129.86523 29.789062 128.37109 33.1875 128.37109 37.347656 C 128.37109 41.390625 129.86523 44.818359 132.85352 47.630859 C 135.8418 50.384766 139.67969 51.761719 144.36719 51.761719 C 149.11328 51.761719 152.95117 50.414062 155.88086 47.71875 C 158.86914 45.023438 160.36328 41.566406 160.36328 37.347656 C 160.36328 33.1875 158.86914 29.789062 155.88086 27.152344 C 152.95117 24.515625 149.11328 23.197266 144.36719 23.197266 z M 8.4140625 29.964844 L 8.4140625 156 L 53.0625 156 C 73.394531 156 89.654297 150.14062 101.8418 138.42188 C 114.08789 126.70312 120.21094 111.0293 120.21094 91.400391 C 120.21094 50.443359 97.828125 29.964844 53.0625 29.964844 L 8.4140625 29.964844 z M 36.802734 53.080078 L 50.689453 53.080078 C 63.228516 53.080078 72.955078 56.537109 79.869141 63.451172 C 86.841797 70.306641 90.328125 79.740234 90.328125 91.751953 C 90.328125 104.4668 86.8125 114.51562 79.78125 121.89844 C 72.808594 129.28125 63.169922 132.97266 50.865234 132.97266 L 36.802734 132.97266 L 36.802734 53.080078 z M 206.84375 63.802734 C 201.74609 63.802734 196.82422 64.359375 192.07812 65.472656 C 187.39062 66.527344 183.20117 68.226562 179.50977 70.570312 C 175.87695 72.855469 172.94727 75.814453 170.7207 79.447266 C 168.55273 83.080078 167.46875 87.416016 167.46875 92.455078 C 167.46875 96.146484 167.9375 99.339844 168.875 102.03516 C 169.87109 104.73047 171.27734 107.10352 173.09375 109.1543 C 174.96875 111.20508 177.25391 113.02148 179.94922 114.60352 C 182.70312 116.12695 185.86719 117.5625 189.44141 118.91016 C 191.66797 119.78906 193.98242 120.58008 196.38477 121.2832 C 198.78711 121.98633 200.98438 122.77734 202.97656 123.65625 C 205.02734 124.53516 206.69727 125.56055 207.98633 126.73242 C 209.27539 127.9043 209.91992 129.36914 209.91992 131.12695 C 209.91992 133.88086 208.48438 135.93164 205.61328 137.2793 C 202.80078 138.62695 198.93359 139.30078 194.01172 139.30078 C 189.96875 139.30078 185.66211 138.62695 181.0918 137.2793 C 176.58008 135.93164 172.03906 133.88086 167.46875 131.12695 L 167.46875 153.62695 C 175.90625 156.67383 185.07617 158.19727 194.97852 158.19727 C 200.36914 158.19727 205.55469 157.64062 210.53516 156.52734 C 215.57422 155.47266 219.99805 153.77344 223.80664 151.42969 C 227.67383 149.02734 230.75 145.95117 233.03516 142.20117 C 235.37891 138.39258 236.55078 133.82227 236.55078 128.49023 C 236.55078 124.68164 235.96484 121.40039 234.79297 118.64648 C 233.67969 115.89258 232.03906 113.49023 229.87109 111.43945 C 227.76172 109.38867 225.21289 107.60156 222.22461 106.07812 C 219.23633 104.55469 215.89648 103.14844 212.20508 101.85938 C 210.1543 101.15625 208.07422 100.48242 205.96484 99.837891 C 203.91406 99.134766 202.03906 98.373047 200.33984 97.552734 C 198.64062 96.673828 197.26367 95.648438 196.20898 94.476562 C 195.1543 93.304688 194.62695 91.898438 194.62695 90.257812 C 194.62695 89.027344 194.97852 87.943359 195.68164 87.005859 C 196.38477 86.009766 197.35156 85.21875 198.58203 84.632812 C 199.8125 83.988281 201.21875 83.519531 202.80078 83.226562 C 204.44141 82.875 206.16992 82.699219 207.98633 82.699219 C 211.85352 82.699219 215.7793 83.226562 219.76367 84.28125 C 223.80664 85.277344 227.58594 86.800781 231.10156 88.851562 L 231.10156 67.40625 C 227.11719 66.234375 223.07422 65.355469 218.97266 64.769531 C 214.87109 64.125 210.82812 63.802734 206.84375 63.802734 z M 289.62109 63.802734 C 274.26953 63.802734 261.99414 68.226562 252.79492 77.074219 C 243.6543 85.863281 239.08398 97.904297 239.08398 113.19727 C 239.08398 126.43945 243.36133 137.25 251.91602 145.62891 C 260.4707 154.00781 271.66211 158.19727 285.49023 158.19727 C 297.32617 158.19727 306.37891 156.38086 312.64844 152.74805 L 312.64844 130.42383 C 306.02734 134.75977 299.25977 136.92773 292.3457 136.92773 C 284.55273 136.92773 278.42969 134.67188 273.97656 130.16016 C 269.52344 125.58984 267.29688 119.32031 267.29688 111.35156 C 267.29688 103.14844 269.61133 96.732422 274.24023 92.103516 C 278.92773 87.416016 285.25586 85.072266 293.22461 85.072266 C 300.37305 85.072266 306.84766 87.240234 312.64844 91.576172 L 312.64844 68.021484 C 307.90234 65.208984 300.22656 63.802734 289.62109 63.802734 z M 130.30469 66 L 130.30469 156 L 158.07812 156 L 158.07812 66 L 130.30469 66 z "
     style="fill:#8bffff;fill-opacity:1" />
  <path
     id="Icon_metro-music-0"
     style="fill:#8bffff;fill-opacity:1;stroke:#ffffff;stroke-width:2.87163px;stroke-opacity:0"
     d="m 396.90215,80.705721 -16.40906,3.42315 V 127.72124 A 19.909993,19.909993 0 0 0 369.36924,124.586 c -8.6015,0 -14.61616,4.67618 -14.61616,10.44146 0,5.76528 6.01466,10.43959 14.61616,10.43959 8.6015,0 15.57338,-4.67335 15.57338,-10.43959 V 105.6493 l 27.0917,-5.651665 A 38.231016,38.231016 0 0 0 396.90215,80.705721 Z" />
  <path
     id="FontAwsome_search_"
     data-name="FontAwsome (search)"
     class="cls-1"
     d="m 470.1436,184.62022 -31.11,-31.11 a 7.483,7.483 0 0 0 -5.3,-2.184 h -5.086 a 64.873,64.873 0 1 0 -11.233,11.233 v 5.086 a 7.483,7.483 0 0 0 2.184,5.3 l 31.11,31.11 a 7.458,7.458 0 0 0 10.578,0 l 8.83,-8.831 a 7.524,7.524 0 0 0 0.027,-10.604 z m -92.676,-33.293 a 39.94,39.94 0 1 1 39.94,-39.94 39.917,39.917 0 0 1 -39.94,39.94 z"
     style="fill:#8bffff;stroke:#1b1067;stroke-width:5px;stroke-opacity:0" />
  <path
     id="Discover_music_at_your_terms"
     style="font-size:29.8857px;font-family:MicrosoftPhagsPa, 'Microsoft PhagsPa';letter-spacing:0.015em;fill:#8bffff;stroke-width:0.964054"
     d="m 32.275391,181.65625 c -0.778274,0 -1.41596,0.22042 -1.91211,0.6582 -0.496149,0.43778 -0.74414,1.00069 -0.74414,1.69141 0,0.67126 0.247991,1.24007 0.74414,1.70703 0.49615,0.45724 1.133836,0.6875 1.91211,0.6875 0.788001,0 1.425688,-0.22437 1.912109,-0.67187 0.496149,-0.44751 0.744141,-1.02221 0.744141,-1.72266 0,-0.69072 -0.247992,-1.25363 -0.744141,-1.69141 -0.486421,-0.43778 -1.124108,-0.6582 -1.912109,-0.6582 z m 170.294919,0 c -0.77827,0 -1.41596,0.22042 -1.91211,0.6582 -0.49615,0.43778 -0.74414,1.00069 -0.74414,1.69141 0,0.67126 0.24799,1.24007 0.74414,1.70703 0.49615,0.45724 1.13384,0.6875 1.91211,0.6875 0.788,0 1.42569,-0.22437 1.91211,-0.67187 0.49615,-0.44751 0.74414,-1.02221 0.74414,-1.72266 0,-0.69072 -0.24799,-1.25363 -0.74414,-1.69141 -0.48642,-0.43778 -1.12411,-0.6582 -1.91211,-0.6582 z m -194.6601538,1.125 v 20.92578 h 7.4121098 c 3.375761,0 6.076098,-0.97424 8.099609,-2.91992 2.033239,-1.94568 3.050781,-4.54762 3.050781,-7.80664 0,-6.80017 -3.717879,-10.19922 -11.15039,-10.19922 z m 246.9589838,1.44336 -4.59766,1.31445 v 3.22461 h -2.42187 v 3.40039 h 2.42187 v 6.84375 c 0,3.37576 1.62571,5.0625 4.875,5.0625 1.37171,0 2.39714,-0.17911 3.07813,-0.53906 v -3.41406 c -0.51561,0.28212 -1.01553,0.42187 -1.50195,0.42187 -1.23551,0 -1.85352,-0.77743 -1.85352,-2.33398 v -6.04102 h 3.35547 v -3.40039 h -3.35547 z m 95.58203,0 -4.59765,1.31445 v 3.22461 h -2.42188 v 3.40039 h 2.42188 v 6.84375 c 0,3.37576 1.6257,5.0625 4.875,5.0625 1.3717,0 2.39713,-0.17911 3.07812,-0.53906 v -3.41406 c -0.51561,0.28212 -1.01553,0.42187 -1.50195,0.42187 -1.23551,0 -1.85352,-0.77743 -1.85352,-2.33398 v -6.04102 h 3.35547 v -3.40039 h -3.35547 z m -337.828123,2.39453 h 2.306641 c 2.081881,0 3.695796,0.57275 4.84375,1.7207 1.157681,1.13823 1.736328,2.7049 1.736328,4.69922 0,2.11107 -0.58259,3.78008 -1.75,5.00586 -1.157682,1.22578 -2.757814,1.83789 -4.800782,1.83789 h -2.335937 z m 31.818359,1.7793 c -0.846372,0 -1.66317,0.0925 -2.451172,0.27734 -0.778273,0.17511 -1.473047,0.45657 -2.085937,0.8457 -0.603162,0.37941 -1.091258,0.87145 -1.460938,1.47461 -0.359951,0.60317 -0.539062,1.32352 -0.539062,2.16016 0,0.61289 0.07872,1.14234 0.234375,1.58984 0.165383,0.44751 0.397638,0.84115 0.699219,1.18164 0.311309,0.3405 0.691164,0.64359 1.138671,0.90625 0.457236,0.25294 0.982739,0.49109 1.576172,0.71485 0.36968,0.14592 0.753479,0.27584 1.152344,0.39258 0.398865,0.11674 0.762984,0.2486 1.09375,0.39453 0.340495,0.14592 0.618006,0.31715 0.832031,0.51172 0.214026,0.19456 0.322266,0.43666 0.322266,0.72851 0,0.45724 -0.238151,0.79773 -0.714844,1.02149 -0.466964,0.22375 -1.110547,0.33593 -1.927734,0.33593 -0.671261,0 -1.385715,-0.11218 -2.144531,-0.33593 -0.749089,-0.22376 -1.502903,-0.56425 -2.261719,-1.02149 v 3.73633 c 1.400892,0.50588 2.924257,0.75781 4.568359,0.75781 0.895015,0 1.755116,-0.0925 2.582032,-0.27734 0.836643,-0.17511 1.570777,-0.45657 2.203124,-0.8457 0.642076,-0.39887 1.153795,-0.90864 1.533204,-1.53125 0.389136,-0.63235 0.583984,-1.39206 0.583984,-2.27735 0,-0.63235 -0.0984,-1.17753 -0.292969,-1.63476 -0.18484,-0.45724 -0.456455,-0.85482 -0.816406,-1.19532 -0.350223,-0.34049 -0.773382,-0.63768 -1.269531,-0.89062 -0.49615,-0.25294 -1.051172,-0.48715 -1.664063,-0.70117 -0.340494,-0.11674 -0.684933,-0.22893 -1.035156,-0.33594 -0.340495,-0.11674 -0.653423,-0.24271 -0.935547,-0.37891 -0.282124,-0.14592 -0.510435,-0.31519 -0.685547,-0.50976 -0.175111,-0.19457 -0.261719,-0.42878 -0.261719,-0.70117 0,-0.2043 0.05709,-0.38341 0.173829,-0.53907 0.116741,-0.16538 0.278125,-0.29724 0.482421,-0.39453 0.204297,-0.10701 0.438505,-0.18573 0.701172,-0.23437 0.272396,-0.0584 0.557794,-0.0879 0.859375,-0.0879 0.642076,0 1.295499,0.0886 1.957032,0.26367 0.67126,0.16538 1.297154,0.41732 1.880859,0.75781 v -3.56055 c -0.661532,-0.19456 -1.332683,-0.34021 -2.013672,-0.4375 -0.680989,-0.10701 -1.352139,-0.16015 -2.013672,-0.16015 z m 15.53711,0 c -2.548846,0 -4.58592,0.73413 -6.113282,2.20312 -1.517633,1.45927 -2.277343,3.45893 -2.277343,5.99805 0,2.19862 0.71051,3.9936 2.130859,5.38477 1.420349,1.39116 3.278312,2.08593 5.574219,2.08593 1.96514,0 3.468825,-0.30113 4.509765,-0.90429 v -3.70704 c -1.099311,0.71991 -2.22314,1.08008 -3.371093,1.08008 -1.29388,0 -2.311422,-0.37396 -3.050782,-1.12304 -0.739359,-0.75882 -1.109375,-1.79999 -1.109375,-3.12305 0,-1.36198 0.385752,-2.42677 1.154297,-3.19531 0.778274,-0.77828 1.829279,-1.16797 3.152344,-1.16797 1.186867,0 2.261496,0.36017 3.224609,1.08008 v -3.91016 c -0.788001,-0.46696 -2.063375,-0.70117 -3.824218,-0.70117 z m 14.617187,0 c -2.51966,0 -4.517374,0.70067 -5.996094,2.10156 -1.478719,1.39116 -2.21875,3.32195 -2.21875,5.79297 0,2.39319 0.710511,4.29051 2.13086,5.69141 1.430077,1.39116 3.390384,2.08593 5.880859,2.08593 2.529389,0 4.519216,-0.71839 5.96875,-2.1582 1.459263,-1.43981 2.1875,-3.40011 2.1875,-5.88086 0,-2.29591 -0.704614,-4.14009 -2.115234,-5.53125 -1.410621,-1.40089 -3.357144,-2.10156 -5.837891,-2.10156 z m 34.621097,0 c -2.10134,0 -3.8727,0.72429 -5.3125,2.17383 -1.43981,1.44953 -2.15821,3.41573 -2.15821,5.89648 0,2.39319 0.66526,4.26099 1.99805,5.60352 1.33279,1.33279 3.20649,1.99804 5.61914,1.99804 2.20835,0 4.00333,-0.36806 5.38477,-1.10742 v -3.32812 c -1.24524,0.77827 -2.68988,1.16796 -4.33399,1.16796 -2.57803,0 -3.94591,-1.08446 -4.10156,-3.2539 h 9.74805 v -1.94141 c 0,-2.21808 -0.59833,-3.9737 -1.79493,-5.26758 -1.18686,-1.29388 -2.86966,-1.9414 -5.04882,-1.9414 z m 40.57031,0 c -1.02148,0 -1.9662,0.25389 -2.83203,0.75976 -0.8561,0.49615 -1.52136,1.14173 -1.99805,1.93946 h -0.0586 v -2.33399 h -4.61133 v 14.94336 h 4.61133 v -8.30469 c 0,-1.07012 0.23225,-1.91644 0.69922,-2.53906 0.47669,-0.62262 1.11043,-0.93359 1.89843,-0.93359 1.56628,0 2.34961,1.0569 2.34961,3.16797 v 8.60937 h 4.61133 v -8.36133 c 0,-0.97284 0.23815,-1.78569 0.71485,-2.4375 0.47669,-0.6518 1.09469,-0.97851 1.85351,-0.97851 1.59546,0 2.39258,1.08447 2.39258,3.2539 v 8.52344 h 4.5957 v -9.29687 c 0,-4.00811 -1.62375,-6.01172 -4.87305,-6.01172 -2.20835,0 -3.8813,0.92898 -5.01953,2.78711 -0.77827,-1.85813 -2.22291,-2.78711 -4.33398,-2.78711 z m 42.41211,0 c -0.84637,0 -1.66317,0.0925 -2.45117,0.27734 -0.77828,0.17511 -1.475,0.45657 -2.08789,0.8457 -0.60317,0.37941 -1.08931,0.87145 -1.45899,1.47461 -0.35995,0.60317 -0.53906,1.32352 -0.53906,2.16016 0,0.61289 0.0768,1.14234 0.23242,1.58984 0.16538,0.44751 0.39959,0.84115 0.70117,1.18164 0.31131,0.3405 0.69117,0.64359 1.13868,0.90625 0.45723,0.25294 0.98273,0.49109 1.57617,0.71485 0.36968,0.14592 0.75348,0.27584 1.15234,0.39258 0.39887,0.11674 0.76298,0.2486 1.09375,0.39453 0.3405,0.14592 0.61801,0.31715 0.83203,0.51172 0.21403,0.19456 0.32227,0.43666 0.32227,0.72851 0,0.45724 -0.24011,0.79773 -0.7168,1.02149 -0.46696,0.22375 -1.10859,0.33593 -1.92578,0.33593 -0.67126,0 -1.38572,-0.11218 -2.14453,-0.33593 -0.74909,-0.22376 -1.5029,-0.56425 -2.26172,-1.02149 v 3.73633 c 1.40089,0.50588 2.9223,0.75781 4.56641,0.75781 0.89501,0 1.75706,-0.0925 2.58398,-0.27734 0.83664,-0.17511 1.57078,-0.45657 2.20312,-0.8457 0.64208,-0.39887 1.15185,-0.90864 1.53126,-1.53125 0.38913,-0.63235 0.58398,-1.39206 0.58398,-2.27735 0,-0.63235 -0.0965,-1.17753 -0.29102,-1.63476 -0.18484,-0.45724 -0.45645,-0.85482 -0.8164,-1.19532 -0.35023,-0.34049 -0.77338,-0.63768 -1.26953,-0.89062 -0.49615,-0.25294 -1.05118,-0.48715 -1.66407,-0.70117 -0.34049,-0.11674 -0.68688,-0.22893 -1.03711,-0.33594 -0.34049,-0.11674 -0.65147,-0.24271 -0.93359,-0.37891 -0.28212,-0.14592 -0.51043,-0.31519 -0.68555,-0.50976 -0.17511,-0.19457 -0.26367,-0.42878 -0.26367,-0.70117 0,-0.2043 0.059,-0.38341 0.17578,-0.53907 0.11674,-0.16538 0.27813,-0.29724 0.48242,-0.39453 0.2043,-0.10701 0.43656,-0.18573 0.69922,-0.23437 0.2724,-0.0584 0.55975,-0.0879 0.86133,-0.0879 0.64208,0 1.29355,0.0886 1.95508,0.26367 0.67126,0.16538 1.29911,0.41732 1.88281,0.75781 v -3.56055 c -0.66153,-0.19456 -1.33268,-0.34021 -2.01367,-0.4375 -0.68099,-0.10701 -1.35214,-0.16015 -2.01367,-0.16015 z m 24.47851,0 c -2.54884,0 -4.58787,0.73413 -6.11523,2.20312 -1.51763,1.45927 -2.27539,3.45893 -2.27539,5.99805 0,2.19862 0.71051,3.9936 2.13086,5.38477 1.42035,1.39116 3.27831,2.08593 5.57422,2.08593 1.96514,0 3.46687,-0.30113 4.50781,-0.90429 v -3.70704 c -1.09931,0.71991 -2.22314,1.08008 -3.37109,1.08008 -1.29388,0 -2.30947,-0.37396 -3.04883,-1.12304 -0.73936,-0.75882 -1.10938,-1.79999 -1.10938,-3.12305 0,-1.36198 0.3838,-2.42677 1.15235,-3.19531 0.77827,-0.77828 1.82928,-1.16797 3.15234,-1.16797 1.18687,0 2.2615,0.36017 3.22461,1.08008 v -3.91016 c -0.788,-0.46696 -2.06142,-0.70117 -3.82227,-0.70117 z m 22.02735,0 c -0.91447,0 -1.93202,0.12596 -3.05078,0.3789 -1.10904,0.25294 -1.98488,0.54619 -2.62696,0.87696 v 3.47265 c 1.60519,-1.06039 3.29783,-1.59179 5.07813,-1.59179 1.77057,0 2.65625,0.81875 2.65625,2.45312 l -4.05664,0.53906 c -3.43413,0.44751 -5.15039,2.12047 -5.15039,5.01954 0,1.3717 0.41332,2.47191 1.24023,3.29882 0.83665,0.81719 1.9782,1.22461 3.42774,1.22461 1.96514,0 3.44914,-0.83648 4.45117,-2.50976 h 0.0586 v 2.14648 h 4.36328 v -8.93164 c 0,-4.25132 -2.12957,-6.37695 -6.39062,-6.37695 z m 55.11328,0 c -2.51966,0 -4.51933,0.70067 -5.99805,2.10156 -1.47872,1.39116 -2.21679,3.32195 -2.21679,5.79297 0,2.39319 0.71051,4.29051 2.13086,5.69141 1.43007,1.39116 3.39038,2.08593 5.88085,2.08593 2.52939,0 4.51727,-0.71839 5.9668,-2.1582 1.45926,-1.43981 2.18945,-3.40011 2.18945,-5.88086 0,-2.29591 -0.70461,-4.14009 -2.11523,-5.53125 -1.41062,-1.40089 -3.35714,-2.10156 -5.83789,-2.10156 z m 69.61523,0 c -2.10133,0 -3.87074,0.72429 -5.31054,2.17383 -1.43981,1.44953 -2.16016,3.41573 -2.16016,5.89648 0,2.39319 0.66721,4.26099 2,5.60352 1.33279,1.33279 3.20454,1.99804 5.61719,1.99804 2.20835,0 4.00333,-0.36806 5.38476,-1.10742 v -3.32812 c -1.24523,0.77827 -2.68988,1.16796 -4.33398,1.16796 -2.57803,0 -3.94396,-1.08446 -4.09961,-3.2539 h 9.74609 v -1.94141 c 0,-2.21808 -0.59637,-3.9737 -1.79296,-5.26758 -1.18687,-1.29388 -2.87162,-1.9414 -5.05079,-1.9414 z m 31.87696,0 c -1.02149,0 -1.96425,0.25389 -2.83008,0.75976 -0.8561,0.49615 -1.52331,1.14173 -2,1.93946 h -0.0586 v -2.33399 h -4.61133 v 14.94336 h 4.61133 v -8.30469 c 0,-1.07012 0.2342,-1.91644 0.70117,-2.53906 0.47669,-0.62262 1.10848,-0.93359 1.89648,-0.93359 1.56628,0 2.34961,1.0569 2.34961,3.16797 v 8.60937 h 4.61133 v -8.36133 c 0,-0.97284 0.23815,-1.78569 0.71484,-2.4375 0.47669,-0.6518 1.0947,-0.97851 1.85352,-0.97851 1.59546,0 2.39258,1.08447 2.39258,3.2539 v 8.52344 h 4.59765 v -9.29687 c 0,-4.00811 -1.62571,-6.01172 -4.875,-6.01172 -2.20835,0 -3.8813,0.92898 -5.01953,2.78711 -0.77827,-1.85813 -2.22292,-2.78711 -4.33398,-2.78711 z m 23.88476,0 c -0.84637,0 -1.66317,0.0925 -2.45117,0.27734 -0.77827,0.17511 -1.475,0.45657 -2.08789,0.8457 -0.60316,0.37941 -1.0893,0.87145 -1.45898,1.47461 -0.35996,0.60317 -0.53907,1.32352 -0.53907,2.16016 0,0.61289 0.0768,1.14234 0.23242,1.58984 0.16539,0.44751 0.3996,0.84115 0.70118,1.18164 0.31131,0.3405 0.69116,0.64359 1.13867,0.90625 0.45723,0.25294 0.98274,0.49109 1.57617,0.71485 0.36968,0.14592 0.75348,0.27584 1.15234,0.39258 0.39887,0.11674 0.76299,0.2486 1.09375,0.39453 0.3405,0.14592 0.61801,0.31715 0.83204,0.51172 0.21402,0.19456 0.32031,0.43666 0.32031,0.72851 0,0.45724 -0.23815,0.79773 -0.71485,1.02149 -0.46696,0.22375 -1.10859,0.33593 -1.92578,0.33593 -0.67126,0 -1.38571,-0.11218 -2.14453,-0.33593 -0.74909,-0.22376 -1.5029,-0.56425 -2.26172,-1.02149 v 3.73633 c 1.4009,0.50588 2.92231,0.75781 4.56641,0.75781 0.89501,0 1.75707,-0.0925 2.58398,-0.27734 0.83665,-0.17511 1.57078,-0.45657 2.20313,-0.8457 0.64207,-0.39887 1.15184,-0.90864 1.53125,-1.53125 0.38914,-0.63235 0.58398,-1.39206 0.58398,-2.27735 0,-0.63235 -0.0964,-1.17753 -0.29101,-1.63476 -0.18484,-0.45724 -0.45841,-0.85482 -0.81836,-1.19532 -0.35022,-0.34049 -0.77338,-0.63768 -1.26953,-0.89062 -0.49615,-0.25294 -1.04922,-0.48715 -1.66211,-0.70117 -0.3405,-0.11674 -0.68689,-0.22893 -1.03711,-0.33594 -0.3405,-0.11674 -0.65147,-0.24271 -0.9336,-0.37891 -0.28212,-0.14592 -0.51043,-0.31519 -0.68554,-0.50976 -0.17511,-0.19457 -0.26367,-0.42878 -0.26367,-0.70117 0,-0.2043 0.059,-0.38341 0.17578,-0.53907 0.11674,-0.16538 0.27812,-0.29724 0.48242,-0.39453 0.2043,-0.10701 0.43655,-0.18573 0.69922,-0.23437 0.27239,-0.0584 0.55974,-0.0879 0.86133,-0.0879 0.64207,0 1.29354,0.0886 1.95507,0.26367 0.67126,0.16538 1.29911,0.41732 1.88282,0.75781 v -3.56055 c -0.66154,-0.19456 -1.33269,-0.34021 -2.01368,-0.4375 -0.68098,-0.10701 -1.35214,-0.16015 -2.01367,-0.16015 z M 127.86133,188.5 c -1.89704,0 -3.20982,1.01165 -3.93945,3.03516 h -0.0586 v -2.77149 h -4.61133 v 14.94336 h 4.61133 v -7.13672 c 0,-1.26469 0.28341,-2.26255 0.84766,-2.99219 0.56425,-0.73935 1.34563,-1.10742 2.34765,-1.10742 0.73936,0 1.38689,0.14959 1.94141,0.45118 v -4.2461 C 128.7276,188.55904 128.34775,188.5 127.86133,188.5 Z m 204.48828,0 c -1.89704,0 -3.20982,1.01165 -3.93945,3.03516 h -0.0586 v -2.77149 h -4.61133 v 14.94336 h 4.61133 v -7.13672 c 0,-1.26469 0.28146,-2.26255 0.84571,-2.99219 0.56424,-0.73935 1.34758,-1.10742 2.34961,-1.10742 0.73935,0 1.38688,0.14959 1.9414,0.45118 v -4.2461 C 333.21589,188.55904 332.83603,188.5 332.34961,188.5 Z m 49.73047,0 c -1.89704,0 -3.21178,1.01165 -3.94141,3.03516 h -0.0566 v -2.77149 h -4.61133 v 14.94336 h 4.61133 v -7.13672 c 0,-1.26469 0.28146,-2.26255 0.8457,-2.99219 0.56425,-0.73935 1.34759,-1.10742 2.34961,-1.10742 0.73936,0 1.38689,0.14959 1.94141,0.45118 v -4.2461 C 382.94635,188.55904 382.5665,188.5 382.08008,188.5 Z m -352.138674,0.26367 v 14.94336 h 4.611328 v -14.94336 z m 54.166016,0 5.296875,14.94336 h 5.253906 l 5.558597,-14.94336 h -4.814456 l -2.65625,9.29492 c -0.291853,1.02149 -0.472917,1.87765 -0.541016,2.56836 h -0.05664 c -0.04864,-0.72963 -0.219867,-1.61531 -0.511719,-2.65625 l -2.597657,-9.20703 z m 83.769528,0 v 9.01758 c 0,4.19295 1.732,6.28906 5.19532,6.28906 1.90677,0 3.43013,-0.87978 4.56835,-2.64062 h 0.0723 v 2.27734 h 4.5957 v -14.94336 h -4.5957 v 8.55078 c 0,0.9923 -0.24799,1.78153 -0.74414,2.36524 -0.49615,0.57397 -1.15746,0.85937 -1.98437,0.85937 -1.67329,0 -2.50977,-1.05495 -2.50977,-3.16601 v -8.60938 z m 32.35938,0 v 14.94336 h 4.61133 v -14.94336 z m 67.72851,0 6.07032,14.91406 -0.78711,1.85352 c -0.46697,1.11877 -1.29556,1.67773 -2.48243,1.67773 -0.7199,0 -1.38515,-0.18106 -1.99804,-0.54101 v 3.67773 c 0.7199,0.25294 1.63904,0.37891 2.75781,0.37891 2.93798,0 5.13644,-1.94063 6.5957,-5.82227 l 6.07032,-16.13867 H 279.625 l -2.81641,9.1211 c -0.23348,0.74908 -0.39486,1.4045 -0.48242,1.96875 h -0.0586 c -0.0973,-0.76855 -0.23309,-1.4338 -0.4082,-1.99805 l -2.78711,-9.0918 z m 37.01368,0 v 9.01758 c 0,4.19295 1.73199,6.28906 5.19531,6.28906 1.90677,0 3.42818,-0.87978 4.5664,-2.64062 h 0.0742 v 2.27734 h 4.59571 v -14.94336 h -4.59571 v 8.55078 c 0,0.9923 -0.24994,1.78153 -0.74609,2.36524 -0.49615,0.57397 -1.15746,0.85937 -1.98438,0.85937 -1.67328,0 -2.50976,-1.05495 -2.50976,-3.16601 v -8.60938 z m -195.79102,2.74414 c 1.73166,0 2.59766,1.06873 2.59766,3.20899 h -5.50196 c 0.11674,-0.91447 0.44346,-1.67813 0.97852,-2.29102 0.54479,-0.61289 1.18642,-0.91797 1.92578,-0.91797 z m 254.2168,0 c 1.73166,0 2.59765,1.06873 2.59765,3.20899 h -5.5 c 0.11674,-0.91447 0.4415,-1.67813 0.97657,-2.29102 0.54479,-0.61289 1.18642,-0.91797 1.92578,-0.91797 z m -288.894534,0.42188 c 2.227807,0 3.341796,1.39739 3.341796,4.18945 0,2.94771 -1.104149,4.41992 -3.3125,4.41992 -2.315363,0 -3.474609,-1.4348 -3.474609,-4.30468 0,-1.37171 0.303088,-2.4306 0.90625,-3.17969 0.603162,-0.74909 1.44948,-1.125 2.539063,-1.125 z m 219.220704,0 c 2.22781,0 3.3418,1.39739 3.3418,4.18945 0,2.94771 -1.10415,4.41992 -3.3125,4.41992 -2.31537,0 -3.47266,-1.4348 -3.47266,-4.30468 0,-1.37171 0.30113,-2.4306 0.9043,-3.17969 0.60316,-0.74909 1.44948,-1.125 2.53906,-1.125 z m -52.96875,4.69922 v 1.00781 c 0,0.91447 -0.27162,1.67223 -0.81641,2.27539 -0.54479,0.59343 -1.25136,0.89062 -2.11719,0.89062 -0.62261,0 -1.1186,-0.16532 -1.48828,-0.49609 -0.35995,-0.34049 -0.53906,-0.77349 -0.53906,-1.29883 0,-1.15768 0.74792,-1.83473 2.2461,-2.02929 z" />
</svg>
