<?xml version="1.0" encoding="UTF-8" standalone="no"?>
<svg
   xmlns:dc="http://purl.org/dc/elements/1.1/"
   xmlns:cc="http://creativecommons.org/ns#"
   xmlns:rdf="http://www.w3.org/1999/02/22-rdf-syntax-ns#"
   xmlns:svg="http://www.w3.org/2000/svg"
   xmlns="http://www.w3.org/2000/svg"
   xmlns:sodipodi="http://sodipodi.sourceforge.net/DTD/sodipodi-0.dtd"
   xmlns:inkscape="http://www.inkscape.org/namespaces/inkscape"
   width="601"
   height="231"
   viewBox="0 0 601 231"
   version="1.1"
   id="svg9"
   sodipodi:docname="discofy_logo.svg"
   inkscape:version="1.0.2-2 (e86c870879, 2021-01-15)">
  <metadata
     id="metadata13">
    <rdf:RDF>
      <cc:Work
         rdf:about="">
        <dc:format>image/svg+xml</dc:format>
        <dc:type
           rdf:resource="http://purl.org/dc/dcmitype/StillImage" />
        <dc:title />
      </cc:Work>
    </rdf:RDF>
  </metadata>
  <sodipodi:namedview
     pagecolor="#ffffff"
     bordercolor="#666666"
     borderopacity="1"
     objecttolerance="10"
     gridtolerance="10"
     guidetolerance="10"
     inkscape:pageopacity="0"
     inkscape:pageshadow="2"
     inkscape:window-width="1920"
     inkscape:window-height="1001"
     id="namedview11"
     showgrid="false"
     inkscape:zoom="3.6905158"
     inkscape:cx="345.43068"
     inkscape:cy="149.28217"
     inkscape:window-x="-9"
     inkscape:window-y="-9"
     inkscape:window-maximized="1"
     inkscape:current-layer="svg9"
     inkscape:document-rotation="0" />
  <defs
     id="defs4">
    <style
       id="style2">
      .cls-1 {
        fill: #8bffff;
        font-size: 180px;
        font-family: MicrosoftPhagsPa-Bold, Microsoft PhagsPa;
        font-weight: 700;
        letter-spacing: -0.045em;
      }
    </style>
  </defs>
  <text
     id="Disc_fy"
     data-name="Disc   fy"
     class="cls-1"
     y="156"
     x="-6"><tspan
       x="-6"
       y="156"
       xml:space="preserve"
       id="tspan6">Disc   fy</tspan></text>
  <path
     id="Icon_metro-music-0"
     style="fill:#8bffff;fill-opacity:1;stroke:#ffffff;stroke-width:2.87163px;stroke-opacity:0"
     d="m 396.90215,80.705721 -16.40906,3.42315 V 127.72124 A 19.909993,19.909993 0 0 0 369.36924,124.586 c -8.6015,0 -14.61616,4.67618 -14.61616,10.44146 0,5.76528 6.01466,10.43959 14.61616,10.43959 8.6015,0 15.57338,-4.67335 15.57338,-10.43959 V 105.6493 l 27.0917,-5.651665 A 38.231016,38.231016 0 0 0 396.90215,80.705721 Z" />
  <path
     id="FontAwsome_search_"
     data-name="FontAwsome (search)"
     class="cls-1"
     d="m 470.1436,184.62022 -31.11,-31.11 a 7.483,7.483 0 0 0 -5.3,-2.184 h -5.086 a 64.873,64.873 0 1 0 -11.233,11.233 v 5.086 a 7.483,7.483 0 0 0 2.184,5.3 l 31.11,31.11 a 7.458,7.458 0 0 0 10.578,0 l 8.83,-8.831 a 7.524,7.524 0 0 0 0.027,-10.604 z m -92.676,-33.293 a 39.94,39.94 0 1 1 39.94,-39.94 39.917,39.917 0 0 1 -39.94,39.94 z"
     style="fill:#8bffff;stroke:#1b1067;stroke-width:5px;stroke-opacity:0" />
  <text
     id="Discover_music_at_your_terms"
     data-name="Discover music at your terms"
     class="cls-1"
     style="font-size:29.8857px;font-family:MicrosoftPhagsPa, 'Microsoft PhagsPa';letter-spacing:0.015em;fill:#8bffff;stroke-width:0.964054"
     x="5.5169182"
     y="203.70634"><tspan
       x="5.5169182"
       y="203.70634"
       id="tspan6-3"
       style="stroke-width:0.964054">Discover music at your terms</tspan></text>
</svg>
