<?xml version="1.0" encoding="UTF-8" standalone="no"?>
<svg
   xmlns:dc="http://purl.org/dc/elements/1.1/"
   xmlns:cc="http://creativecommons.org/ns#"
   xmlns:rdf="http://www.w3.org/1999/02/22-rdf-syntax-ns#"
   xmlns:svg="http://www.w3.org/2000/svg"
   xmlns="http://www.w3.org/2000/svg"
   xmlns:sodipodi="http://sodipodi.sourceforge.net/DTD/sodipodi-0.dtd"
   xmlns:inkscape="http://www.inkscape.org/namespaces/inkscape"
   width="156.73929"
   height="157.70314"
   viewBox="0 0 156.73929 157.70314"
   version="1.1"
   id="svg7"
   sodipodi:docname="hover_icon.svg"
   inkscape:version="1.0.2-2 (e86c870879, 2021-01-15)">
  <metadata
     id="metadata11">
    <rdf:RDF>
      <cc:Work
         rdf:about="">
        <dc:format>image/svg+xml</dc:format>
        <dc:type
           rdf:resource="http://purl.org/dc/dcmitype/StillImage" />
        <dc:title />
      </cc:Work>
    </rdf:RDF>
  </metadata>
  <sodipodi:namedview
     pagecolor="#ffffff"
     bordercolor="#666666"
     borderopacity="1"
     objecttolerance="10"
     gridtolerance="10"
     guidetolerance="10"
     inkscape:pageopacity="0"
     inkscape:pageshadow="2"
     inkscape:window-width="1282"
     inkscape:window-height="937"
     id="namedview9"
     showgrid="false"
     inkscape:zoom="3.2936508"
     inkscape:cx="69.66357"
     inkscape:cy="61.261424"
     inkscape:window-x="48"
     inkscape:window-y="46"
     inkscape:window-maximized="0"
     inkscape:current-layer="svg7"
     inkscape:document-rotation="0" />
  <defs
     id="defs4">
    <style
       id="style2">
      .cls-1 {
        fill: #8bffff;
      }
    </style>
  </defs>
  <path
     id="Icon_material-library-music"
     data-name="Icon material-library-music"
     class="cls-1"
     d="M 83.490632,48.010668 H 30.620653 c -4.860712,0.0142 -8.797571,3.951056 -8.811768,8.811768 v 52.869974 c 0.0142,4.86071 3.951056,8.79757 8.811768,8.81176 h 50.348004 c 1.215173,-0.004 -9.392324,-19.98529 -8.728048,-21.9567 0.664285,-1.97142 -2.001887,-6.663244 -1.723766,-9.29002 0.278114,-2.626776 8.346945,3.934077 8.346945,3.934077 l 4.238217,1.247367 4.156452,1.817876 5.043942,2.21815 V 89.86617 83.257421 76.648676 70.03993 63.431182 56.822436 c -0.0142,-4.860712 -3.951054,-8.797571 -8.811767,-8.811768 z M 74.678865,70.040087 H 61.46121 V 94.27183 c -0.0018,9.81373 -11.866897,14.72466 -18.804228,7.78495 -6.937329,-6.93972 -2.022331,-18.803244 7.79141,-18.801559 2.391176,-0.0044 4.716023,0.785899 6.608826,2.247073 V 61.22832 h 17.623539 z"
     style="fill:#8bffff;stroke-width:0.630493"
     sodipodi:nodetypes="ccccccscccccccccccccccscccccc" />
  <path
     id="Icon_metro-volume-high"
     data-name="Icon metro-volume-high"
     d="m 130.62469,59.437241 a 3.448574,3.448574 0 0 1 -5.37555,-3.421385 33.336215,33.336215 0 0 0 -27.058025,-38.607192 3.4490942,3.4490942 0 0 1 1.196225,-6.793677 40.23021,40.23021 0 0 1 32.65595,46.59446 3.4378543,3.4378543 0 0 1 -1.41778,2.225676 z m -13.76235,1.704241 a 3.448574,3.448574 0 0 1 -5.37555,-3.421386 24.167762,24.167762 0 0 0 -19.593779,-27.956986 3.4490941,3.4490941 0 0 1 1.193593,-6.794139 31.037165,31.037165 0 0 1 25.191696,35.944252 3.4372237,3.4372237 0 0 1 -1.41777,2.225676 z m -13.76477,1.705171 a 3.448574,3.448574 0 0 1 -5.375549,-3.421385 14.960845,14.960845 0 0 0 -12.129538,-17.306779 3.448574,3.448574 0 0 1 1.194681,-6.792591 21.86556,21.86556 0 0 1 17.727456,25.294047 3.4384849,3.4384849 0 0 1 -1.41777,2.225675 z"
     style="fill:#8bffff;fill-opacity:1;stroke-width:0.630569" />
  <path
     id="FontAwsome_mouse-pointer_"
     data-name="FontAwsome (mouse-pointer)"
     class="cls-1"
     d="m 125.29624,116.65137 -13.86954,5.32403 14.12383,14.97795 c 0.96317,1.0163 0.94915,2.61259 -0.0317,3.61182 l -5.34951,5.27083 c -0.99883,0.96393 -2.59466,0.91911 -3.5378,-0.0994 l -13.41736,-14.22127 -6.856481,16.00387 c -0.900122,2.05607 -3.851522,1.95174 -4.604203,-0.16275 l -4.03831,-10.5202 -17.525284,-45.654879 c -0.822906,-2.143748 1.380427,-4.188958 3.313367,-3.200023 l 51.867241,23.972192 c 2.02908,0.93167 1.98335,3.83064 -0.0741,4.69783 z"
     style="fill:none;stroke:#8bffff;stroke-width:3.15246;stroke-miterlimit:4;stroke-dasharray:none;stroke-opacity:1"
     sodipodi:nodetypes="ccccccccccccccc" />
</svg>
