<?xml version="1.0" encoding="UTF-8" standalone="no"?>
<svg
   xmlns:dc="http://purl.org/dc/elements/1.1/"
   xmlns:cc="http://creativecommons.org/ns#"
   xmlns:rdf="http://www.w3.org/1999/02/22-rdf-syntax-ns#"
   xmlns:svg="http://www.w3.org/2000/svg"
   xmlns="http://www.w3.org/2000/svg"
   xmlns:sodipodi="http://sodipodi.sourceforge.net/DTD/sodipodi-0.dtd"
   xmlns:inkscape="http://www.inkscape.org/namespaces/inkscape"
   width="156.73929"
   height="157.70314"
   viewBox="0 0 156.73929 157.70314"
   version="1.1"
   id="svg7"
   sodipodi:docname="hover_icon.svg"
   inkscape:version="1.0.2-2 (e86c870879, 2021-01-15)">
  <metadata
     id="metadata11">
    <rdf:RDF>
      <cc:Work
         rdf:about="">
        <dc:format>image/svg+xml</dc:format>
        <dc:type
           rdf:resource="http://purl.org/dc/dcmitype/StillImage" />
        <dc:title></dc:title>
      </cc:Work>
    </rdf:RDF>
  </metadata>
  <sodipodi:namedview
     pagecolor="#ffffff"
     bordercolor="#666666"
     borderopacity="1"
     objecttolerance="10"
     gridtolerance="10"
     guidetolerance="10"
     inkscape:pageopacity="0"
     inkscape:pageshadow="2"
     inkscape:window-width="1282"
     inkscape:window-height="937"
     id="namedview9"
     showgrid="false"
     inkscape:zoom="3.2936508"
     inkscape:cx="77.956331"
     inkscape:cy="61.261424"
     inkscape:window-x="48"
     inkscape:window-y="61"
     inkscape:window-maximized="0"
     inkscape:current-layer="svg7"
     inkscape:document-rotation="0" />
  <defs
     id="defs4">
    <style
       id="style2">
      .cls-1 {
        fill: #8bffff;
      }
    </style>
  </defs>
  <path
     id="Icon_material-library-music"
     data-name="Icon material-library-music"
     class="cls-1"
     d="M 84.248822,42.772672 H 25.586119 c -5.393279,0.01576 -9.761482,4.383955 -9.777234,9.777233 V 111.2126 c 0.01576,5.39328 4.383955,9.76148 9.777234,9.77723 h 55.864406 c 1.348315,-0.004 -10.421398,-22.174985 -9.68434,-24.362397 0.737068,-2.187416 -2.221225,-7.393307 -1.912631,-10.307887 0.308585,-2.91458 9.261482,4.365116 9.261482,4.365116 l 4.702579,1.384036 4.611855,2.017051 5.596584,2.461181 v -7.332838 -7.33284 -7.332835 -7.332837 -7.332838 -7.332837 c -0.01575,-5.393278 -4.383953,-9.761481 -9.777232,-9.777233 z M 74.471589,67.215755 H 59.805736 v 26.886701 c -0.002,10.888984 -13.167099,16.337974 -20.864522,8.637914 -7.697421,-7.700068 -2.243909,-20.863428 8.645079,-20.861559 2.653166,-0.0049 5.232737,0.872007 7.332925,2.493275 V 57.438522 h 19.554471 z"
     style="fill:#8bffff;stroke-width:0.699573"
     sodipodi:nodetypes="ccccccscccccccccccccccscccccc" />
  <path
     id="Icon_metro-volume-high"
     data-name="Icon metro-volume-high"
     d="m 136.54714,55.451203 a 3.8264186,3.8264186 0 0 1 -5.96452,-3.796251 36.988713,36.988713 0 0 0 -30.02265,-42.8372071 3.8269958,3.8269958 0 0 1 1.32729,-7.5380295 44.638052,44.638052 0 0 1 36.23391,51.6996036 3.8145244,3.8145244 0 0 1 -1.57311,2.469534 z m -15.27022,1.890967 a 3.8264186,3.8264186 0 0 1 -5.96453,-3.796252 26.815714,26.815714 0 0 0 -21.740578,-31.020106 3.8269957,3.8269957 0 0 1 1.324369,-7.538542 34.437767,34.437767 0 0 1 27.951839,39.882501 3.8138247,3.8138247 0 0 1 -1.57311,2.469533 z M 106.004,59.234169 a 3.8264186,3.8264186 0 0 1 -5.96452,-3.796251 16.600037,16.600037 0 0 0 -13.458517,-19.203005 3.8264186,3.8264186 0 0 1 1.325577,-7.536824 24.261271,24.261271 0 0 1 19.66977,28.065401 3.8152241,3.8152241 0 0 1 -1.57311,2.469533 z"
     style="fill:#8bffff;fill-opacity:1;stroke-width:0.699657" />
  <path
     id="FontAwsome_mouse-pointer_"
     data-name="FontAwsome (mouse-pointer)"
     class="cls-1"
     d="m 130.63488,118.93403 -15.38916,5.90736 15.67131,16.61901 c 1.0687,1.12765 1.05315,2.89884 -0.0352,4.00755 l -5.93564,5.84833 c -1.10826,1.06955 -2.87894,1.01981 -3.92542,-0.11025 l -14.88744,-15.77943 -7.60771,17.75734 c -0.998745,2.28134 -4.273516,2.16558 -5.108665,-0.18059 L 88.936219,141.33047 69.490769,90.673393 c -0.913068,-2.378628 1.531674,-4.647923 3.676397,-3.550635 l 57.550104,26.598722 c 2.25139,1.03374 2.20065,4.25034 -0.0822,5.21255 z"
     style="fill:none;stroke:#8bffff;stroke-width:3.49786;stroke-miterlimit:4;stroke-dasharray:none;stroke-opacity:1"
     sodipodi:nodetypes="ccccccccccccccc" />
</svg>
