<?xml version="1.0" encoding="UTF-8" standalone="no"?>
<svg
   xmlns:dc="http://purl.org/dc/elements/1.1/"
   xmlns:cc="http://creativecommons.org/ns#"
   xmlns:rdf="http://www.w3.org/1999/02/22-rdf-syntax-ns#"
   xmlns:svg="http://www.w3.org/2000/svg"
   xmlns="http://www.w3.org/2000/svg"
   xmlns:sodipodi="http://sodipodi.sourceforge.net/DTD/sodipodi-0.dtd"
   xmlns:inkscape="http://www.inkscape.org/namespaces/inkscape"
   width="156.73929"
   height="157.70314"
   viewBox="0 0 156.73929 157.70314"
   version="1.1"
   id="svg7"
   sodipodi:docname="select_cat.svg"
   inkscape:version="1.0.2-2 (e86c870879, 2021-01-15)">
  <metadata
     id="metadata11">
    <rdf:RDF>
      <cc:Work
         rdf:about="">
        <dc:format>image/svg+xml</dc:format>
        <dc:type
           rdf:resource="http://purl.org/dc/dcmitype/StillImage" />
        <dc:title />
      </cc:Work>
    </rdf:RDF>
  </metadata>
  <sodipodi:namedview
     pagecolor="#ffffff"
     bordercolor="#666666"
     borderopacity="1"
     objecttolerance="10"
     gridtolerance="10"
     guidetolerance="10"
     inkscape:pageopacity="0"
     inkscape:pageshadow="2"
     inkscape:window-width="1282"
     inkscape:window-height="937"
     id="namedview9"
     showgrid="false"
     inkscape:zoom="3.2936508"
     inkscape:cx="68.146911"
     inkscape:cy="93.452329"
     inkscape:window-x="1086"
     inkscape:window-y="48"
     inkscape:window-maximized="0"
     inkscape:current-layer="svg7"
     inkscape:document-rotation="0" />
  <defs
     id="defs4">
    <style
       id="style2">
      .cls-1 {
        fill: #8bffff;
      }
    </style>
  </defs>
  <path
     id="FontAwsome_square_"
     data-name="FontAwsome (square)"
     class="cls-1"
     d="M 61.822209,23.053544 H 8.9187979 A 7.2157493,7.1103522 0 0 0 1.7046981,30.162261 V 82.292936 A 7.2157493,7.1103522 0 0 0 8.9187979,89.40165 H 61.822209 a 7.2157493,7.1103522 0 0 0 7.214085,-7.108714 V 30.162261 a 7.2157493,7.1103522 0 0 0 -7.214085,-7.108717 z"
     style="fill:none;stroke:#8bffff;stroke-width:2.72809px" />
  <path
     id="FontAwsome_square_-2"
     data-name="FontAwsome (square)"
     class="cls-1"
     d="M 136.48285,65.914347 H 83.579474 c -3.983846,8.95e-4 -7.213204,3.183046 -7.214111,7.108714 v 52.130669 c 8.32e-4,3.92567 3.230255,7.10782 7.214111,7.10872 h 6.612934 6.612927 6.612915 6.61291 6.61293 l 1.55104,-0.21729 -14.33809,-39.759419 -1.0993,-1.083234 40.93923,17.668853 V 99.088399 86.055731 73.023061 c -8.3e-4,-3.925668 -3.23024,-7.107822 -7.21412,-7.108714 z"
     style="fill:#8bffff;stroke:#8bffff;stroke-width:2.72809px"
     sodipodi:nodetypes="cccccccccccccccccc" />
  <path
     id="FontAwsome_mouse-pointer_"
     data-name="FontAwsome (mouse-pointer)"
     class="cls-1"
     d="m 153.97093,118.66263 -12.09109,4.57353 12.31276,12.86664 c 0.83967,0.87304 0.82745,2.2443 -0.0277,3.10268 l -4.66355,4.52784 c -0.87075,0.82806 -2.26196,0.78956 -3.08417,-0.0853 l -11.69686,-12.21662 -5.97728,13.74792 c -0.7847,1.76626 -3.35766,1.67663 -4.01383,-0.1398 l -3.52047,-9.03725 -15.27803,-39.219298 c -0.71738,-1.841554 1.20345,-3.598462 2.8885,-2.748933 l 45.21639,20.593031 c 1.76888,0.80034 1.72903,3.29066 -0.0647,4.03561 z"
     style="fill:none;stroke:#8bffff;stroke-width:2.72809px"
     sodipodi:nodetypes="ccccccccccccccc" />
  <path
     id="Icon_awesome-drum"
     data-name="Icon awesome-drum"
     d="m 49.317548,45.149234 8.53895,-5.048523 A 2.6693353,2.6303454 0 0 0 55.109295,35.589995 L 41.706634,43.513462 A 52.486369,51.719724 0 0 0 35.131207,43.104241 C 21.866329,43.104446 11.112325,47.81447 11.112325,53.623969 v 13.217695 c 0,2.503243 2.004236,4.799581 5.337712,6.605175 v -7.919992 a 2.6688693,2.6298863 0 0 1 5.337738,0 v 10.060194 a 45.700545,45.033017 0 0 0 10.675451,1.705408 v -9.134863 a 2.6688618,2.6298789 0 0 1 5.33772,0 v 9.135728 a 45.700545,45.033017 0 0 0 10.67546,-1.705407 V 65.52771 a 2.6688689,2.6298859 0 0 1 5.337737,0 v 7.919787 c 3.333707,-1.805594 5.337738,-4.101724 5.337738,-6.605176 V 53.624832 c 0,-3.483003 -3.881519,-6.561573 -9.834772,-8.475598 z M 35.132297,60.199418 c -11.055079,0 -20.016565,-2.943886 -20.016565,-6.574811 0,-3.630891 8.961708,-6.574794 20.016565,-6.574794 0.195212,0 0.385364,0.0082 0.578799,0.0095 l -7.290234,4.309272 a 2.6693353,2.6303454 0 1 0 2.747205,4.510718 l 13.570578,-8.023916 c 6.202621,1.116825 10.409605,3.280894 10.409605,5.768504 0.0016,3.631578 -8.961726,6.5746 -20.015953,6.5746 z"
     style="fill:#8bffff;fill-opacity:1;stroke-width:0.218465" />
</svg>
